<svg xmlns="http://www.w3.org/2000/svg" width="100" height="100" viewBox="0 0 100 100" fill="none"><rect width="100" height="100" rx="20" fill="#052241"></rect><path d="M82.5039 50.3976C81.7433 52.5649 80.3986 53.8762 78.3815 54.418C77.7863 54.5806 77.1691 54.6564 76.5518 54.6889C75.5267 54.7323 74.4686 54.6239 73.3774 54.5264L73.1128 54.4939C72.1869 54.4072 71.25 54.3096 70.3242 54.2121C67.8993 53.9629 65.3862 53.7028 62.8951 53.5727C60.6135 53.4644 58.3098 53.4535 56.0723 53.4427C54.7827 53.4427 53.4931 53.4427 52.2034 53.4102H52.1594C50.7265 53.4102 50.3297 54.548 50.2084 54.9273L48.4889 59.9339C46.4167 65.9916 44.2784 72.266 42.096 78.3779C40.7623 82.1166 38.7452 84.544 36.0998 85.6168C34.6779 86.202 33.245 86.1153 31.9665 85.3676C31.1728 84.9016 30.4895 84.2081 29.9604 83.3411C29.3211 82.3225 28.9022 81.0654 28.7479 79.6892C28.4393 76.8933 28.9133 74.1733 30.247 71.1174C30.6107 70.2721 30.9744 69.4377 31.3492 68.6032C32.4404 66.1 33.5316 63.5967 34.6338 61.0934L36.7942 56.1627C36.8383 56.0652 36.8824 55.9677 36.9155 55.8268L37.4776 54.1363L35.2181 54.2988C34.7441 54.3313 34.2811 54.3638 33.8292 54.3963L31.5917 54.5914C30.4233 54.6889 29.266 54.7865 28.0976 54.884C25.1326 55.1224 22.7959 54.6456 20.7678 53.3994C18.8278 52.2073 17.6595 50.5601 17.1635 48.3603C16.5903 45.8353 17.5603 43.0286 19.5112 41.5332C20.867 40.4929 22.3219 39.951 23.8099 39.9185C26.5214 39.8752 29.288 39.886 31.9554 39.886C33.0687 39.8968 34.182 39.8968 35.2842 39.8968C36.3203 39.8968 37.3454 39.886 38.3704 39.8752C39.2412 39.8643 40.123 39.8643 40.9937 39.8643H41.104C41.7323 39.8643 42.5589 39.6151 42.8896 38.4339C44.7634 31.6718 45.7884 26.3401 46.2073 21.1602C46.3506 19.4697 46.5711 18.0934 47.2324 16.9339C48.2244 15.2108 49.5581 14.2572 51.3217 14.0513C53.5482 13.7912 55.3999 14.5173 56.9761 16.2837C58.7287 18.2343 59.3239 20.7809 58.7948 24.0536C58.1335 28.2366 57.1745 32.5496 55.8518 37.231C55.7967 37.3936 55.7637 37.5669 55.7306 37.7078L55.3889 39.1708H58.4752C59.7317 39.1816 61.0324 39.1925 62.3109 39.1708C64.2839 39.1058 66.3562 38.9866 68.8362 38.8023C69.718 38.7373 70.5997 38.6398 71.4815 38.5422C72.1759 38.4664 72.8703 38.3797 73.5647 38.3255C74.7 38.228 75.6811 38.228 76.5518 38.3364C77.2021 38.4014 77.7863 38.5314 78.3595 38.7265C81.1481 39.6693 82.8235 42.2809 82.9778 45.8787C83.0329 47.3525 83.0219 48.9238 82.5039 50.4084V50.3976Z" fill="#2BD6AD"></path></svg>